<?xml version="1.0" encoding="iso-8859-1"?>
<!-- Generator: Adobe Illustrator 19.0.0, SVG Export Plug-In . SVG Version: 6.00 Build 0)  -->
<svg version="1.1" id="Capa_1" xmlns="http://www.w3.org/2000/svg" xmlns:xlink="http://www.w3.org/1999/xlink" x="0px" y="0px"
	 viewBox="0 0 470 470" style="enable-background:new 0 0 470 470;" xml:space="preserve">
<g>
	<path style="fill:#B2AFAF;" d="M378.606,314.586h15V16.285c-8.73,3.096-15,11.437-15,21.215V314.586z"/>
	<rect x="371.939" y="329.586" style="fill:#FF382E;" width="28.333" height="125.414"/>
	<path style="fill:#655F5E;" d="M338.722,376.636c-3.335,2.323-7.927,1.576-10.338-1.723
		c-15.082-20.635-35.113-36.767-57.786-47.252L171.787,455h162.653c4.143,0,7.5,3.357,7.5,7.5h15v-47.926
		C352.574,401.025,346.409,388.285,338.722,376.636z"/>
	<path style="fill:#3F3736;" d="M152.8,455l46.04-59.332L146.022,327.6C97.263,350.213,62.737,398.501,59.914,455H152.8z"/>
	<path style="fill:#FFBC99;" d="M141.48,210.841h133.706c2.387-7.072,3.7-14.633,3.7-22.5s-1.314-15.428-3.7-22.5H141.48
		c-2.386,7.072-3.7,14.633-3.7,22.5S139.094,203.769,141.48,210.841z M220.534,188.341c0-4.143,3.357-7.5,7.5-7.5h17.27
		c4.143,0,7.5,3.357,7.5,7.5s-3.357,7.5-7.5,7.5h-9.92c-0.694,3.423-3.722,6-7.35,6c-4.143,0-7.5-3.357-7.5-7.5V188.341z
		 M171.362,180.841h17.27c4.143,0,7.5,3.357,7.5,7.5v6c0,4.143-3.357,7.5-7.5,7.5c-3.628,0-6.655-2.577-7.35-6h-9.92
		c-4.143,0-7.5-3.357-7.5-7.5S167.22,180.841,171.362,180.841z"/>
	<path style="fill:#3F3736;" d="M148.614,225.841c12.501,19.837,34.589,33.053,59.719,33.053s47.218-13.216,59.719-33.053H148.614z"
		/>
	<path style="fill:#3F3736;" d="M148.614,150.841h119.439c-12.501-19.837-34.59-33.054-59.72-33.054
		S161.115,131.004,148.614,150.841z"/>
	<path style="fill:#1C1918;" d="M417.772,314.586h-9.166V7.5c0-4.143-3.357-7.5-7.5-7.5c-20.678,0-37.5,16.822-37.5,37.5v277.086
		h-9.167c-4.143,0-7.5,3.357-7.5,7.5s3.357,7.5,7.5,7.5h2.5V462.5c0,4.143,3.357,7.5,7.5,7.5h43.333c4.143,0,7.5-3.357,7.5-7.5
		V329.586h2.5c4.143,0,7.5-3.357,7.5-7.5S421.915,314.586,417.772,314.586z M393.606,16.285v298.301h-15V37.5
		C378.606,27.722,384.876,19.381,393.606,16.285z M371.939,329.586h28.333V455h-28.333V329.586z"/>
	<path style="fill:#1C1918;" d="M334.439,455H171.787l98.812-127.339c22.673,10.485,42.705,26.617,57.786,47.252
		c2.41,3.298,7.002,4.046,10.338,1.723c0.047-0.033,0.096-0.06,0.143-0.094c3.344-2.444,4.073-7.137,1.629-10.48
		c-14.881-20.36-34.547-37.251-56.871-48.846c-3.891-2.021-7.872-3.867-11.918-5.563c-0.281-0.142-0.568-0.262-0.859-0.366
		c-19.711-8.132-41.063-12.393-62.513-12.393c-21.989,0-42.973,4.371-62.144,12.273c-0.462,0.138-0.914,0.322-1.351,0.553
		C86.071,336.561,44.728,394.792,44.728,462.5c0,4.143,3.357,7.5,7.5,7.5h282.212c4.143,0,7.5-3.357,7.5-7.5
		S338.582,455,334.439,455z M146.022,327.6l52.818,68.068L152.8,455H59.914C62.737,398.501,97.263,350.213,146.022,327.6z"/>
	<path style="fill:#1C1918;" d="M122.78,188.341c0,11.377,2.251,22.234,6.301,32.173c0.112,0.37,0.257,0.725,0.422,1.068
		c12.999,30.71,43.439,52.311,78.83,52.311c35.391,0,65.832-21.601,78.831-52.311c0.165-0.344,0.31-0.698,0.422-1.069
		c4.05-9.939,6.301-20.796,6.301-32.173c0-11.378-2.251-22.235-6.301-32.175c-0.112-0.369-0.256-0.722-0.421-1.064
		c-12.998-30.712-43.439-52.314-78.832-52.314c-35.392,0-65.833,21.603-78.831,52.315c-0.164,0.342-0.309,0.695-0.42,1.064
		C125.031,166.106,122.78,176.963,122.78,188.341z M268.053,150.841H148.614c12.501-19.837,34.589-33.054,59.719-33.054
		S255.552,131.004,268.053,150.841z M208.333,258.894c-25.13,0-47.218-13.216-59.719-33.053h119.438
		C255.551,245.677,233.463,258.894,208.333,258.894z M275.186,165.841c2.387,7.072,3.7,14.633,3.7,22.5s-1.314,15.428-3.7,22.5
		H141.48c-2.386-7.072-3.7-14.633-3.7-22.5s1.314-15.428,3.7-22.5H275.186z"/>
	<path style="fill:#1C1918;" d="M171.362,195.841h9.92c0.694,3.423,3.722,6,7.35,6c4.143,0,7.5-3.357,7.5-7.5v-6
		c0-4.143-3.357-7.5-7.5-7.5h-17.27c-4.143,0-7.5,3.357-7.5,7.5S167.22,195.841,171.362,195.841z"/>
	<path style="fill:#1C1918;" d="M228.034,201.841c3.628,0,6.655-2.577,7.35-6h9.92c4.143,0,7.5-3.357,7.5-7.5s-3.357-7.5-7.5-7.5
		h-17.27c-4.143,0-7.5,3.357-7.5,7.5v6C220.534,198.483,223.892,201.841,228.034,201.841z"/>
</g>
<g>
</g>
<g>
</g>
<g>
</g>
<g>
</g>
<g>
</g>
<g>
</g>
<g>
</g>
<g>
</g>
<g>
</g>
<g>
</g>
<g>
</g>
<g>
</g>
<g>
</g>
<g>
</g>
<g>
</g>
</svg>
