<?xml version="1.0" encoding="iso-8859-1"?>
<!-- Generator: Adobe Illustrator 19.0.0, SVG Export Plug-In . SVG Version: 6.00 Build 0)  -->
<svg version="1.1" id="Layer_1" xmlns="http://www.w3.org/2000/svg" xmlns:xlink="http://www.w3.org/1999/xlink" x="0px" y="0px"
	 viewBox="0 0 512.001 512.001" style="enable-background:new 0 0 512.001 512.001;" xml:space="preserve">
<g>
	<g>
		<path d="M495.379,158.673c-10.727-10.712-24.977-16.612-40.126-16.612c-29.856,0-54.402,23.168-56.599,52.467H262.291
			c-5.882,0-10.652,4.769-10.652,10.652s4.77,10.652,10.652,10.652h146.854c5.882,0,10.652-4.769,10.652-10.652v-6.371
			c0-19.544,15.905-35.443,35.455-35.443c9.464,0,18.367,3.687,25.061,10.372c6.695,6.704,10.382,15.608,10.382,25.071v69.602
			c0,10.739-7.997,19.927-18.602,21.37c-0.051,0.006-0.102,0.014-0.153,0.022c-0.884,0.133-1.835,0.201-2.825,0.201h-55.063h-53.28
			h-53.28h-53.279h-53.276h-31.65c-3.471-16.236-17.933-28.447-35.195-28.447c-5.882,0-10.652,4.769-10.652,10.652
			c0,5.883,4.77,10.652,10.652,10.652c8.098,0,14.684,6.582,14.684,14.672v3.123c0,5.883,4.77,10.652,10.652,10.652h30.857v15.186
			c0,5.883,4.77,10.652,10.652,10.652c5.882,0,10.652-4.769,10.652-10.652v-15.186h31.976v15.186c0,5.883,4.77,10.652,10.652,10.652
			c5.882,0,10.652-4.769,10.652-10.652v-15.186h31.975v15.186c0,5.883,4.77,10.652,10.652,10.652
			c5.882,0,10.652-4.769,10.652-10.652v-15.186h31.976v15.186c0,5.883,4.77,10.652,10.652,10.652
			c5.882,0,10.652-4.769,10.652-10.652v-15.186h31.976v15.186c0,5.883,4.77,10.652,10.652,10.652s10.652-4.769,10.652-10.652
			v-15.186h37.21c-5.009,26.484-28.312,46.582-56.234,46.582H111.456c-49.71-0.001-90.152-40.444-90.152-90.154v-61.537
			c0-13.988,5.761-27.658,15.806-37.502c9.868-9.672,22.742-14.849,36.309-14.575c27.582,0.546,50.021,23.451,50.021,51.06
			c0,5.883,4.77,10.652,10.652,10.652h56.139c5.882,0,10.652-4.769,10.652-10.652c0-5.883-4.77-10.652-10.652-10.652h-46.263
			c-2.211-15.057-9.097-28.997-19.936-40.042c-13.339-13.594-31.164-21.289-50.187-21.665c-19.326-0.395-37.658,6.948-51.646,20.66
			C8.091,167.308,0,186.523,0,206.199v61.537c0,61.457,49.998,111.457,111.456,111.457H405.68c40.601,0,74.106-30.96,78.141-70.508
			c16.553-6.061,28.18-22.038,28.18-40.274V198.81C512,183.662,506.101,169.41,495.379,158.673z"/>
	</g>
</g>
<g>
	<g>
		<path d="M227.404,194.529h-5.91c-5.882,0-10.652,4.769-10.652,10.652s4.77,10.652,10.652,10.652h5.91
			c5.882,0,10.652-4.769,10.652-10.652S233.286,194.529,227.404,194.529z"/>
	</g>
</g>
<g>
	<g>
		<path d="M455.253,192.206c-5.882,0-10.652,4.769-10.652,10.652v17.752c0,5.883,4.77,10.652,10.652,10.652
			c5.882,0,10.652-4.769,10.652-10.652v-17.752C465.905,196.975,461.135,192.206,455.253,192.206z"/>
	</g>
</g>
<g>
	<g>
		<path d="M72.601,173.288c-16.356,0-29.662,13.307-29.662,29.662c0,5.883,4.77,10.652,10.652,10.652s10.652-4.769,10.652-10.652
			c0-4.609,3.749-8.359,8.359-8.359s8.359,3.75,8.359,8.359c0,5.883,4.77,10.652,10.652,10.652s10.652-4.769,10.652-10.652
			C102.263,186.595,88.957,173.288,72.601,173.288z"/>
	</g>
</g>
<g>
</g>
<g>
</g>
<g>
</g>
<g>
</g>
<g>
</g>
<g>
</g>
<g>
</g>
<g>
</g>
<g>
</g>
<g>
</g>
<g>
</g>
<g>
</g>
<g>
</g>
<g>
</g>
<g>
</g>
</svg>
